<svg width="161px" height="161px" viewBox="0 -0.5 161 161" fill="none" xmlns="http://www.w3.org/2000/svg">
<g clip-path="url(#clip0)">
<path d="M112.307 53.906C104.571 46.3706 94.6231 45.5574 86.3447 51.7847C83.0905 54.2322 79.9611 57.6681 76.7779 62.2861C72.7243 68.1721 71.6781 75.3472 70.756 81.6763C69.123 92.8734 70.374 103.992 71.583 114.74C71.7621 116.328 72.1737 119.981 75.7422 119.981C75.8564 119.981 75.9745 119.978 76.0959 119.97C79.6402 119.743 79.6533 116.711 79.6618 114.704C79.6618 114.511 79.6618 114.323 79.6671 114.139C79.7117 111.733 79.6533 109.288 79.5962 106.926C79.5155 103.549 79.4308 100.058 79.6526 96.6585C80.0642 89.5267 80.901 82.4258 82.1585 75.3931C83.252 69.511 86.5291 64.2592 91.3328 60.6914C96.4385 56.8079 100.996 57.2666 105.271 62.09C108.508 65.7115 110.666 70.1667 111.501 74.9514C112.449 80.5113 113.102 86.2253 113.733 91.753C113.979 93.9071 114.225 96.0625 114.488 98.2133L114.376 98.2284C114.221 98.2494 114.079 98.3223 113.973 98.4358C113.866 98.5494 113.802 98.6958 113.791 98.8507C113.724 99.826 113.656 100.801 113.585 101.777C113.416 104.124 113.241 106.553 113.119 108.946L113.104 109.237C112.96 110.971 112.978 112.715 113.155 114.447C113.568 117.51 115.723 119.712 118.518 119.926C121.209 120.131 123.711 118.308 124.74 115.392C124.974 114.701 125.119 113.983 125.173 113.255C126.199 101.59 126.784 86.2372 122.16 70.9327C120.022 63.853 116.798 58.2818 112.307 53.906Z" fill="white"/>
<path d="M48.2102 113.282C48.2529 115.375 48.7742 117.431 49.7343 119.292C50.3368 120.456 52.3393 121.06 53.5765 121.06C53.6165 121.06 53.6552 121.06 53.6939 121.06C54.8557 121.023 56.2912 119.625 56.6076 118.549C57.0937 116.767 57.2908 114.918 57.1916 113.073C56.7978 102.277 56.3442 91.3014 55.9071 80.6877L55.0362 59.4604C54.9706 57.8438 54.8466 54.8337 51.1862 54.5318C51.0659 54.5233 50.9453 54.5459 50.8362 54.5975C48.0245 55.9607 48.1132 58.525 48.1848 60.5859C48.1972 60.9383 48.2096 61.2887 48.2083 61.6306C48.1571 75.7816 48.1085 94.4413 48.2102 113.282Z" fill="white"/>
<path d="M51.3855 33.6173C50.9411 33.2754 50.4818 32.9222 50.0781 32.5547C49.9845 32.4686 49.8682 32.4111 49.7431 32.3887C49.6179 32.3662 49.4889 32.3799 49.3712 32.4281C44.9251 34.2271 44.6416 37.3228 45.1864 39.6029C45.4543 40.5147 45.9129 41.3593 46.5319 42.0806C47.1508 42.8017 47.9159 43.3832 48.7765 43.7864C49.0325 43.8796 49.3036 43.9242 49.576 43.9178C50.9877 43.9178 52.8925 42.9372 53.5108 41.9363C53.9815 41.1155 54.273 40.2044 54.3662 39.2629C54.4596 38.3214 54.3526 37.3709 54.0522 36.4738C53.5685 35.2983 52.4586 34.445 51.3855 33.6173Z" fill="white"/>
</g>
<defs>
<clipPath id="clip0">
<rect width="160.146" height="159.49" fill="white" transform="translate(0.69165 0.0527344)"/>
</clipPath>
</defs>
</svg>
